G04*
G04 #@! TF.GenerationSoftware,Altium Limited,Altium Designer,19.0.11 (319)*
G04*
G04 Layer_Color=8421504*
%FSLAX44Y44*%
%MOMM*%
G71*
G01*
G75*
%ADD17R,1.7000X2.5000*%
%ADD18R,1.9812X0.5334*%
%ADD19R,3.4290X2.4180*%
%ADD20R,1.8500X3.0000*%
%ADD21R,0.5600X0.6400*%
%ADD22R,0.6000X0.6000*%
%ADD23R,1.2192X0.5080*%
%ADD24R,0.5400X0.6000*%
%ADD25R,1.8000X1.6500*%
%ADD26R,0.6000X0.6000*%
%ADD27R,1.0500X0.4500*%
%ADD28R,0.6400X0.5600*%
%ADD29R,1.3208X0.5588*%
%ADD30R,0.8048X0.3000*%
%ADD31R,0.6000X0.5400*%
%ADD32R,1.5000X2.2000*%
%ADD33R,2.3000X2.4500*%
%ADD34R,2.5000X1.7000*%
%ADD35R,2.4000X1.2200*%
%ADD36R,1.4000X1.3900*%
%ADD37R,4.8600X3.3600*%
G36*
X956206Y713860D02*
X940706D01*
Y726860D01*
X956206D01*
Y713860D01*
D02*
G37*
G36*
Y728860D02*
X940706D01*
Y741860D01*
X956206D01*
Y728860D01*
D02*
G37*
G36*
Y743860D02*
X940706D01*
Y756860D01*
X956206D01*
Y743860D01*
D02*
G37*
G36*
X1211890Y884780D02*
Y863580D01*
X1181090D01*
Y884780D01*
X1211890D01*
D02*
G37*
D17*
X767400Y892854D02*
D03*
Y852854D02*
D03*
D18*
X1159068Y773850D02*
D03*
Y761150D02*
D03*
Y748450D02*
D03*
Y735750D02*
D03*
X1109792D02*
D03*
Y748450D02*
D03*
Y761150D02*
D03*
Y773850D02*
D03*
D19*
X903512Y926790D02*
D03*
Y875990D02*
D03*
D20*
X835790Y888528D02*
D03*
Y927028D02*
D03*
D21*
Y837750D02*
D03*
X827090D02*
D03*
X912392Y851630D02*
D03*
X903692D02*
D03*
X872380Y754680D02*
D03*
X863680D02*
D03*
X1001080Y714160D02*
D03*
X992380D02*
D03*
X1001080Y738290D02*
D03*
X992380D02*
D03*
X1122270Y701460D02*
D03*
X1113570D02*
D03*
X1122270Y714160D02*
D03*
X1113570D02*
D03*
X1086200Y743370D02*
D03*
X1077500D02*
D03*
X1150400Y789090D02*
D03*
X1159100D02*
D03*
X1156750Y908470D02*
D03*
X1165450D02*
D03*
X850680Y852590D02*
D03*
X859380D02*
D03*
X1208630Y908470D02*
D03*
X1199930D02*
D03*
D22*
X827090Y801282D02*
D03*
Y779282D02*
D03*
D23*
X933770Y826428D02*
D03*
Y817030D02*
D03*
Y807632D02*
D03*
X910910Y826428D02*
D03*
Y817030D02*
D03*
Y807632D02*
D03*
D24*
X892582Y851630D02*
D03*
X883942D02*
D03*
X932712D02*
D03*
X924072D02*
D03*
X893640Y791630D02*
D03*
X885000D02*
D03*
Y781470D02*
D03*
X893640D02*
D03*
X1086140Y714160D02*
D03*
X1077500D02*
D03*
Y753530D02*
D03*
X1086140D02*
D03*
X1121220Y789090D02*
D03*
X1129860D02*
D03*
X1178370Y908470D02*
D03*
X1187010D02*
D03*
D25*
X728180Y922010D02*
D03*
Y897010D02*
D03*
X658180Y922010D02*
D03*
Y897010D02*
D03*
X728030Y824220D02*
D03*
Y849220D02*
D03*
X658030Y824220D02*
D03*
Y849220D02*
D03*
D26*
X839360Y763500D02*
D03*
X817360D02*
D03*
X872380Y837750D02*
D03*
X850380D02*
D03*
X871950Y781470D02*
D03*
X849950D02*
D03*
X918100Y747860D02*
D03*
X896100D02*
D03*
X979080Y753530D02*
D03*
X1001080D02*
D03*
X1077710Y701460D02*
D03*
X1099710D02*
D03*
D27*
X1062150Y714160D02*
D03*
Y701460D02*
D03*
X1018750Y714160D02*
D03*
Y701460D02*
D03*
X1062150Y766230D02*
D03*
Y753530D02*
D03*
X1018750Y766230D02*
D03*
Y753530D02*
D03*
D28*
X827090Y820110D02*
D03*
Y811410D02*
D03*
X918470Y727750D02*
D03*
Y719050D02*
D03*
X904760Y718700D02*
D03*
Y727400D02*
D03*
X849950Y754800D02*
D03*
Y763500D02*
D03*
X933770Y787820D02*
D03*
Y779120D02*
D03*
X947740D02*
D03*
Y787820D02*
D03*
X1181250Y782550D02*
D03*
Y773850D02*
D03*
X1181420Y757340D02*
D03*
Y748640D02*
D03*
D29*
X867222Y810680D02*
D03*
X845378Y820078D02*
D03*
Y801282D02*
D03*
D30*
X933932Y752860D02*
D03*
Y747860D02*
D03*
Y742860D02*
D03*
Y737860D02*
D03*
Y732860D02*
D03*
Y727860D02*
D03*
Y722860D02*
D03*
Y717860D02*
D03*
X962980D02*
D03*
Y722860D02*
D03*
Y727860D02*
D03*
Y732860D02*
D03*
Y737860D02*
D03*
Y742860D02*
D03*
Y747860D02*
D03*
Y752860D02*
D03*
D31*
X893070Y718700D02*
D03*
Y727340D02*
D03*
X863695Y732700D02*
D03*
Y741340D02*
D03*
X1193950Y757340D02*
D03*
Y765980D02*
D03*
X1229680Y843190D02*
D03*
Y851830D02*
D03*
X790260Y878540D02*
D03*
Y869900D02*
D03*
D32*
X1266000Y908470D02*
D03*
X1234000D02*
D03*
D33*
X1257620Y871260D02*
D03*
Y823760D02*
D03*
X1307150Y871260D02*
D03*
Y823760D02*
D03*
D34*
X1165314Y822259D02*
D03*
X1205314D02*
D03*
D35*
X1119310Y911480D02*
D03*
Y886480D02*
D03*
Y861480D02*
D03*
Y836480D02*
D03*
Y811480D02*
D03*
X961710Y911480D02*
D03*
Y886480D02*
D03*
Y861480D02*
D03*
Y836480D02*
D03*
Y811480D02*
D03*
D36*
X1156670Y883380D02*
D03*
Y864980D02*
D03*
D37*
X1196490Y874180D02*
D03*
M02*
