G04*
G04 #@! TF.GenerationSoftware,Altium Limited,Altium Designer,19.0.11 (319)*
G04*
G04 Layer_Color=8388736*
%FSLAX44Y44*%
%MOMM*%
G71*
G01*
G75*
%ADD38R,1.9032X2.7032*%
%ADD39R,2.1844X0.7366*%
%ADD40R,3.6322X2.6212*%
%ADD41R,2.0532X3.2032*%
%ADD42R,0.7632X0.8432*%
%ADD43R,0.8032X0.8032*%
%ADD44R,1.4224X0.7112*%
%ADD45R,0.7432X0.8032*%
%ADD46R,2.0032X1.8532*%
%ADD47R,0.8032X0.8032*%
%ADD48R,1.2532X0.6532*%
%ADD49R,0.8432X0.7632*%
%ADD50R,1.5240X0.7620*%
%ADD51R,1.0080X0.5032*%
%ADD52R,1.9532X4.7032*%
%ADD53R,0.8032X0.7432*%
%ADD54R,1.7032X2.4032*%
%ADD55R,2.5032X2.6532*%
%ADD56R,2.7032X1.9032*%
%ADD57R,2.6032X1.4232*%
%ADD58R,1.6032X1.5932*%
%ADD59R,5.0632X3.5632*%
%ADD60R,1.6112X1.6112*%
%ADD61C,1.6112*%
%ADD62C,2.6032*%
%ADD63C,3.4532*%
%ADD64C,2.0032*%
%ADD65C,1.7272*%
%ADD66R,1.7032X1.7032*%
%ADD67C,1.7032*%
%ADD68O,2.2032X4.2032*%
%ADD69O,4.2032X2.2032*%
%ADD70O,2.4532X4.7032*%
%ADD71C,1.0032*%
%ADD72C,1.2032*%
%ADD73C,0.8032*%
%ADD74C,1.4732*%
D38*
X767400Y892854D02*
D03*
Y852854D02*
D03*
D39*
X1159068Y773850D02*
D03*
Y761150D02*
D03*
Y748450D02*
D03*
Y735750D02*
D03*
X1109792D02*
D03*
Y748450D02*
D03*
Y761150D02*
D03*
Y773850D02*
D03*
D40*
X903512Y926790D02*
D03*
Y875990D02*
D03*
D41*
X835790Y888528D02*
D03*
Y927028D02*
D03*
D42*
Y837750D02*
D03*
X827090D02*
D03*
X912392Y851630D02*
D03*
X903692D02*
D03*
X872380Y754680D02*
D03*
X863680D02*
D03*
X1001080Y714160D02*
D03*
X992380D02*
D03*
X1001080Y738290D02*
D03*
X992380D02*
D03*
X1122270Y701460D02*
D03*
X1113570D02*
D03*
X1122270Y714160D02*
D03*
X1113570D02*
D03*
X1086200Y743370D02*
D03*
X1077500D02*
D03*
X1150400Y789090D02*
D03*
X1159100D02*
D03*
X1156750Y908470D02*
D03*
X1165450D02*
D03*
X850680Y852590D02*
D03*
X859380D02*
D03*
X1208630Y908470D02*
D03*
X1199930D02*
D03*
D43*
X827090Y801282D02*
D03*
Y779282D02*
D03*
D44*
X933770Y826428D02*
D03*
Y817030D02*
D03*
Y807632D02*
D03*
X910910Y826428D02*
D03*
Y817030D02*
D03*
Y807632D02*
D03*
D45*
X892582Y851630D02*
D03*
X883942D02*
D03*
X932712D02*
D03*
X924072D02*
D03*
X893640Y791630D02*
D03*
X885000D02*
D03*
Y781470D02*
D03*
X893640D02*
D03*
X1086140Y714160D02*
D03*
X1077500D02*
D03*
Y753530D02*
D03*
X1086140D02*
D03*
X1121220Y789090D02*
D03*
X1129860D02*
D03*
X1178370Y908470D02*
D03*
X1187010D02*
D03*
D46*
X728180Y922010D02*
D03*
Y897010D02*
D03*
X658180Y922010D02*
D03*
Y897010D02*
D03*
X728030Y824220D02*
D03*
Y849220D02*
D03*
X658030Y824220D02*
D03*
Y849220D02*
D03*
D47*
X839360Y763500D02*
D03*
X817360D02*
D03*
X872380Y837750D02*
D03*
X850380D02*
D03*
X871950Y781470D02*
D03*
X849950D02*
D03*
X918100Y747860D02*
D03*
X896100D02*
D03*
X979080Y753530D02*
D03*
X1001080D02*
D03*
X1077710Y701460D02*
D03*
X1099710D02*
D03*
D48*
X1062150Y714160D02*
D03*
Y701460D02*
D03*
X1018750Y714160D02*
D03*
Y701460D02*
D03*
X1062150Y766230D02*
D03*
Y753530D02*
D03*
X1018750Y766230D02*
D03*
Y753530D02*
D03*
D49*
X827090Y820110D02*
D03*
Y811410D02*
D03*
X918470Y727750D02*
D03*
Y719050D02*
D03*
X904760Y718700D02*
D03*
Y727400D02*
D03*
X849950Y754800D02*
D03*
Y763500D02*
D03*
X933770Y787820D02*
D03*
Y779120D02*
D03*
X947740D02*
D03*
Y787820D02*
D03*
X1181250Y782550D02*
D03*
Y773850D02*
D03*
X1181420Y757340D02*
D03*
Y748640D02*
D03*
D50*
X867222Y810680D02*
D03*
X845378Y820078D02*
D03*
Y801282D02*
D03*
D51*
X933932Y752860D02*
D03*
Y747860D02*
D03*
Y742860D02*
D03*
Y737860D02*
D03*
Y732860D02*
D03*
Y727860D02*
D03*
Y722860D02*
D03*
Y717860D02*
D03*
X962980D02*
D03*
Y722860D02*
D03*
Y727860D02*
D03*
Y732860D02*
D03*
Y737860D02*
D03*
Y742860D02*
D03*
Y747860D02*
D03*
Y752860D02*
D03*
D52*
X948456Y735360D02*
D03*
D53*
X893070Y718700D02*
D03*
Y727340D02*
D03*
X863695Y732700D02*
D03*
Y741340D02*
D03*
X1193950Y757340D02*
D03*
Y765980D02*
D03*
X1229680Y843190D02*
D03*
Y851830D02*
D03*
X790260Y878540D02*
D03*
Y869900D02*
D03*
D54*
X1266000Y908470D02*
D03*
X1234000D02*
D03*
D55*
X1257620Y871260D02*
D03*
Y823760D02*
D03*
X1307150Y871260D02*
D03*
Y823760D02*
D03*
D56*
X1165314Y822259D02*
D03*
X1205314D02*
D03*
D57*
X1119310Y911480D02*
D03*
Y886480D02*
D03*
Y861480D02*
D03*
Y836480D02*
D03*
Y811480D02*
D03*
X961710Y911480D02*
D03*
Y886480D02*
D03*
Y861480D02*
D03*
Y836480D02*
D03*
Y811480D02*
D03*
D58*
X1156670Y883380D02*
D03*
Y864980D02*
D03*
D59*
X1196490Y874180D02*
D03*
D60*
X604840Y870370D02*
D03*
D61*
Y844970D02*
D03*
Y819570D02*
D03*
X579440Y832270D02*
D03*
Y806870D02*
D03*
Y857670D02*
D03*
X604840Y794170D02*
D03*
Y768770D02*
D03*
X579440Y781470D02*
D03*
Y756070D02*
D03*
D62*
X546440Y891770D02*
D03*
Y734670D02*
D03*
D63*
X515940Y870370D02*
D03*
Y756070D02*
D03*
D64*
X475340Y879670D02*
D03*
Y772270D02*
D03*
Y746770D02*
D03*
Y854170D02*
D03*
D65*
X585790Y927520D02*
D03*
X703900Y873467D02*
D03*
X749620Y935140D02*
D03*
X964250Y681140D02*
D03*
X1001080D02*
D03*
X1206820Y797980D02*
D03*
X1307150D02*
D03*
Y897040D02*
D03*
D66*
X736920Y750990D02*
D03*
D67*
Y725590D02*
D03*
X711520Y750990D02*
D03*
Y725590D02*
D03*
X686120Y750990D02*
D03*
Y725590D02*
D03*
D68*
X1285560Y734480D02*
D03*
D69*
X1255560Y781480D02*
D03*
D70*
X1223560Y734480D02*
D03*
D71*
X1335000Y930000D02*
D03*
X1342500Y915000D02*
D03*
X1335000Y900000D02*
D03*
X1342500Y885000D02*
D03*
X1335000Y870000D02*
D03*
X1342500Y855000D02*
D03*
X1335000Y840000D02*
D03*
X1342500Y825000D02*
D03*
X1335000Y810000D02*
D03*
X1342500Y795000D02*
D03*
X1335000Y780000D02*
D03*
X1342500Y765000D02*
D03*
X1335000Y750000D02*
D03*
X1342500Y735000D02*
D03*
X1335000Y720000D02*
D03*
X1342500Y705000D02*
D03*
X1335000Y690000D02*
D03*
X1320000Y930000D02*
D03*
X1327500Y915000D02*
D03*
X1320000Y900000D02*
D03*
X1327500Y825000D02*
D03*
Y795000D02*
D03*
X1320000Y780000D02*
D03*
X1327500Y765000D02*
D03*
X1320000Y750000D02*
D03*
X1327500Y735000D02*
D03*
X1320000Y720000D02*
D03*
X1327500Y705000D02*
D03*
X1320000Y690000D02*
D03*
X1305000Y930000D02*
D03*
Y780000D02*
D03*
X1312500Y765000D02*
D03*
X1305000Y750000D02*
D03*
X1312500Y735000D02*
D03*
X1305000Y720000D02*
D03*
X1312500Y705000D02*
D03*
X1305000Y690000D02*
D03*
X1290000Y930000D02*
D03*
Y840000D02*
D03*
Y780000D02*
D03*
X1297500Y765000D02*
D03*
Y705000D02*
D03*
X1290000Y690000D02*
D03*
X1275000Y930000D02*
D03*
X1282500Y915000D02*
D03*
X1275000Y840000D02*
D03*
X1282500Y825000D02*
D03*
Y765000D02*
D03*
Y705000D02*
D03*
X1275000Y690000D02*
D03*
X1260000Y930000D02*
D03*
X1267500Y765000D02*
D03*
X1260000Y750000D02*
D03*
X1267500Y735000D02*
D03*
X1260000Y720000D02*
D03*
X1267500Y705000D02*
D03*
X1260000Y690000D02*
D03*
X1245000Y930000D02*
D03*
X1252500Y735000D02*
D03*
Y705000D02*
D03*
X1245000Y690000D02*
D03*
X1237500Y825000D02*
D03*
X1215000Y930000D02*
D03*
Y900000D02*
D03*
X1140000Y780000D02*
D03*
Y750000D02*
D03*
X1125000Y930000D02*
D03*
Y780000D02*
D03*
X1132500Y765000D02*
D03*
X1125000Y750000D02*
D03*
X1132500Y735000D02*
D03*
X1110000Y930000D02*
D03*
Y690000D02*
D03*
X1095000Y930000D02*
D03*
Y900000D02*
D03*
Y840000D02*
D03*
X1102500Y825000D02*
D03*
X1095000Y810000D02*
D03*
X1080000Y930000D02*
D03*
X1087500Y915000D02*
D03*
X1080000Y900000D02*
D03*
X1087500Y885000D02*
D03*
X1080000Y870000D02*
D03*
X1087500Y855000D02*
D03*
X1080000Y840000D02*
D03*
X1087500Y825000D02*
D03*
X1080000Y810000D02*
D03*
X1087500Y795000D02*
D03*
X1080000Y780000D02*
D03*
X1087500Y705000D02*
D03*
X1065000Y930000D02*
D03*
X1072500Y915000D02*
D03*
X1065000Y900000D02*
D03*
X1072500Y885000D02*
D03*
X1065000Y870000D02*
D03*
X1072500Y855000D02*
D03*
X1065000Y840000D02*
D03*
X1072500Y825000D02*
D03*
X1065000Y810000D02*
D03*
X1072500Y795000D02*
D03*
X1065000Y690000D02*
D03*
X862500Y842796D02*
D03*
X1020000Y930000D02*
D03*
X1027500Y915000D02*
D03*
X1020000Y900000D02*
D03*
X1027500Y885000D02*
D03*
X1020000Y870000D02*
D03*
X1027500Y855000D02*
D03*
X1020000Y840000D02*
D03*
X1027500Y825000D02*
D03*
X1020000Y810000D02*
D03*
X1027500Y795000D02*
D03*
X1020000Y780000D02*
D03*
Y690000D02*
D03*
X1005000Y930000D02*
D03*
X1012500Y915000D02*
D03*
X1005000Y900000D02*
D03*
X1012500Y885000D02*
D03*
X1005000Y870000D02*
D03*
X1012500Y855000D02*
D03*
X1005000Y840000D02*
D03*
X1012500Y825000D02*
D03*
X1005000Y810000D02*
D03*
X1012500Y795000D02*
D03*
X1005000Y780000D02*
D03*
X997500Y825000D02*
D03*
X990000Y810000D02*
D03*
X997500Y795000D02*
D03*
X990000Y780000D02*
D03*
Y750000D02*
D03*
X982500Y825000D02*
D03*
Y795000D02*
D03*
X967500Y825000D02*
D03*
X960000Y780000D02*
D03*
X952500Y825000D02*
D03*
X862500Y885000D02*
D03*
X855000Y810000D02*
D03*
X840000D02*
D03*
Y750000D02*
D03*
X817500Y885000D02*
D03*
X810000Y870000D02*
D03*
Y780000D02*
D03*
X765000Y690000D02*
D03*
X750000D02*
D03*
X742500Y705000D02*
D03*
X735000Y690000D02*
D03*
X727500Y735000D02*
D03*
X720000Y690000D02*
D03*
X705000D02*
D03*
X690000Y930000D02*
D03*
X697500Y915000D02*
D03*
X690000Y900000D02*
D03*
X697500Y765000D02*
D03*
Y735000D02*
D03*
X690000Y690000D02*
D03*
X675000Y930000D02*
D03*
X682500Y915000D02*
D03*
X675000Y900000D02*
D03*
X682500Y885000D02*
D03*
X675000Y810000D02*
D03*
Y690000D02*
D03*
X667500Y765000D02*
D03*
Y735000D02*
D03*
X660000Y690000D02*
D03*
X645000Y810000D02*
D03*
Y780000D02*
D03*
X652500Y735000D02*
D03*
X645000Y690000D02*
D03*
X637500Y885000D02*
D03*
Y825000D02*
D03*
X630000Y810000D02*
D03*
Y780000D02*
D03*
X637500Y765000D02*
D03*
Y735000D02*
D03*
X630000Y690000D02*
D03*
X615000Y930000D02*
D03*
X622500Y885000D02*
D03*
Y825000D02*
D03*
X615000Y810000D02*
D03*
Y780000D02*
D03*
X622500Y765000D02*
D03*
X615000Y720000D02*
D03*
Y690000D02*
D03*
X600000Y930000D02*
D03*
X607500Y885000D02*
D03*
X600000Y780000D02*
D03*
Y720000D02*
D03*
Y690000D02*
D03*
X592500Y885000D02*
D03*
X585000Y870000D02*
D03*
X592500Y825000D02*
D03*
Y795000D02*
D03*
Y765000D02*
D03*
Y735000D02*
D03*
Y705000D02*
D03*
X585000Y690000D02*
D03*
X570000Y930000D02*
D03*
Y900000D02*
D03*
Y720000D02*
D03*
X577500Y705000D02*
D03*
X570000Y690000D02*
D03*
X555000Y930000D02*
D03*
Y870000D02*
D03*
Y840000D02*
D03*
Y810000D02*
D03*
X562500Y795000D02*
D03*
X555000Y780000D02*
D03*
X562500Y705000D02*
D03*
X555000Y690000D02*
D03*
X540000Y930000D02*
D03*
Y870000D02*
D03*
X547500Y855000D02*
D03*
X540000Y840000D02*
D03*
X547500Y825000D02*
D03*
X540000Y810000D02*
D03*
X547500Y795000D02*
D03*
X540000Y780000D02*
D03*
X547500Y765000D02*
D03*
Y705000D02*
D03*
X540000Y690000D02*
D03*
X525000Y930000D02*
D03*
Y900000D02*
D03*
X532500Y855000D02*
D03*
X525000Y840000D02*
D03*
X532500Y825000D02*
D03*
X525000Y810000D02*
D03*
X532500Y795000D02*
D03*
X525000Y780000D02*
D03*
Y720000D02*
D03*
X532500Y705000D02*
D03*
X525000Y690000D02*
D03*
X510000Y930000D02*
D03*
Y900000D02*
D03*
Y840000D02*
D03*
X517500Y825000D02*
D03*
X510000Y810000D02*
D03*
X517500Y795000D02*
D03*
X510000Y780000D02*
D03*
Y720000D02*
D03*
X517500Y705000D02*
D03*
X510000Y690000D02*
D03*
X495000Y930000D02*
D03*
Y900000D02*
D03*
Y840000D02*
D03*
X502500Y825000D02*
D03*
X495000Y810000D02*
D03*
X502500Y795000D02*
D03*
X495000Y780000D02*
D03*
Y750000D02*
D03*
X502500Y735000D02*
D03*
X495000Y720000D02*
D03*
X502500Y705000D02*
D03*
X495000Y690000D02*
D03*
X480000Y930000D02*
D03*
Y840000D02*
D03*
X487500Y825000D02*
D03*
X480000Y810000D02*
D03*
X487500Y795000D02*
D03*
Y765000D02*
D03*
Y735000D02*
D03*
X480000Y720000D02*
D03*
X487500Y705000D02*
D03*
X480000Y690000D02*
D03*
X465000Y930000D02*
D03*
X472500Y915000D02*
D03*
X465000Y900000D02*
D03*
Y870000D02*
D03*
Y840000D02*
D03*
X472500Y825000D02*
D03*
X465000Y810000D02*
D03*
X472500Y795000D02*
D03*
X465000Y720000D02*
D03*
X472500Y705000D02*
D03*
X465000Y690000D02*
D03*
D72*
X625160Y922440D02*
D03*
X686120Y837350D02*
D03*
X938650Y838820D02*
D03*
X884240Y825920D02*
D03*
X834710Y852590D02*
D03*
X904760Y707810D02*
D03*
D73*
X973004Y716808D02*
D03*
X976950Y725590D02*
D03*
X982030Y701460D02*
D03*
Y717860D02*
D03*
X1001080Y725590D02*
D03*
X979490Y738290D02*
D03*
D74*
X885510Y762420D02*
D03*
X893070Y807632D02*
D03*
X912180Y770040D02*
D03*
X973140Y775120D02*
D03*
X884750Y737860D02*
D03*
X1193950Y782740D02*
D03*
X1224600Y822259D02*
D03*
M02*
